<svg width="85" height="87" viewBox="0 0 85 87" fill="none" xmlns="http://www.w3.org/2000/svg">
<g id="Group">
<g id="Group 12473">
<path id="Vector" d="M42.5 85C53.2413 85 63.5426 80.6277 71.1378 72.8449C78.733 65.0622 83 54.5065 83 43.5C83 32.4935 78.733 21.9378 71.1378 14.1551C63.5426 6.37231 53.2413 2 42.5 2C31.7587 2 21.4574 6.37231 13.8622 14.1551C6.26695 21.9378 2 32.4935 2 43.5C2 54.5065 6.26695 65.0622 13.8622 72.8449C21.4574 80.6277 31.7587 85 42.5 85Z" stroke="black" stroke-width="4" stroke-linecap="round" stroke-linejoin="round"/>
<path id="Vector_2" d="M18.5195 76.9318C20.7935 72.4235 24.2338 68.6429 28.4641 66.0039C32.6943 63.3648 37.5515 61.9689 42.5041 61.9689C47.4566 61.9689 52.3138 63.3648 56.5441 66.0039C60.7743 68.6429 64.2146 72.4235 66.4886 76.9318M42.5041 48.1133C46.3472 48.1133 50.0329 46.549 52.7504 43.7644C55.4679 40.9798 56.9945 37.2031 56.9945 33.2651C56.9945 29.3271 55.4679 25.5504 52.7504 22.7658C50.0329 19.9812 46.3472 18.4168 42.5041 18.4168C38.6609 18.4168 34.9752 19.9812 32.2577 22.7658C29.5403 25.5504 28.0136 29.3271 28.0136 33.2651C28.0136 37.2031 29.5403 40.9798 32.2577 43.7644C34.9752 46.549 38.6609 48.1133 42.5041 48.1133Z" stroke="black" stroke-width="4" stroke-linecap="round" stroke-linejoin="round"/>
</g>
</g>
</svg>
